<?xml version="1.0" encoding="UTF-8"?>
<svg id="Layer_1" xmlns="http://www.w3.org/2000/svg" version="1.1" viewBox="0 0 433.69 202.3">
  <!-- Generator: Adobe Illustrator 29.1.0, SVG Export Plug-In . SVG Version: 2.1.0 Build 142)  -->
  <defs>
    <style>
      .st0 {
        fill: #3a2a9c;
      }
    </style>
  </defs>
  <path class="st0" d="M202.78,80.18v41.85l9.66-7.79c36.4-16.88,62.38,16.24,54.92,51.83-6.43,30.67-42.33,43.14-64.57,19.73v10.96h-23.97v-116.57h23.96ZM219.49,130.24c-22.35,3.8-22.63,44.8,2.41,46.92,30.97,2.62,29-52.26-2.41-46.92Z"/>
  <path class="st0" d="M47.85,109.34c54.36-.8,63.59,72.95,15.15,86.86C-6.81,216.25-21.23,110.36,47.85,109.34ZM32.45,170.49c20.62,20.97,50-7.63,34.02-30.47-19.35-27.66-56.49,7.61-34.02,30.47Z"/>
  <path class="st0" d="M308.59,31.35c3.58-.93,14.19,11.52,14.95,10.97,1.83-4.91,8.1-9.37,12.99-10.97-6.09-6.7-9.42-13.1-4.2-21.61,10.05-16.36,34.76-1.83,26.2,15.19l-6.02,6.42c4.83.52,6.88,5.35,10.59,7.75,7.53-1.35,32.02-3.52,36.38,3.65,5.45,8.97-15.17,17.98-21.35,20.66-7.38,3.21-15.25,5.02-22.56,8.38l-33.37,31.23-22.32-20.69c-13.51,1.07-27.06,2.83-40.58.72-38.11-5.96,5.09-27.88,20.34-27.79-3.18-10.02,3.73-19.18,11.97-24.4-10.45-5.18-10.47-19.68-.95-25.85,12.96-8.4,28.76,5.83,21.79,19.75-1.32,2.64-3.61,4.15-3.86,6.59ZM297.34,10.61c-9.06,1.84-6.69,16.65,3.52,14.59,8.73-1.76,6.29-16.59-3.52-14.59ZM343.26,10.62c-8.57,1.73-6.69,16.68,3.52,14.59,9.06-1.85,6.69-16.65-3.52-14.59ZM297.34,37.58c-11.35,2.1-13.4,15.37-6.7,24.14,1.22,1.6,10.51,10.93,11.66,11.28,3.55,1.07,18.69-2.2,23.44-3.1,5.48-1.04,25.01-4.84,28.28-7.63,8.03-6.85,4.8-22.01-5.44-24.5-13.66-3.31-16.78,8.36-26.39,14.44-8.12-6.59-12.6-16.9-24.86-14.63ZM364.48,60.24c10.77-3.5,22.64-6.36,30.92-14.44-.02-3.86-27.82-6.01-31.92-5.47,3.21,6.54,4.23,13.09,1,19.91ZM279.63,56.27c-4.74.92-30.91,13.07-29.93,17.42,13.37,6.08,28.78,2.01,42.92,1.5-4.58-5.96-12.04-10.83-12.99-18.92ZM310.58,81.19c1.6,2.02,10.72,12.16,12.34,11.87,4.51-4.92,11.07-9.74,15.12-14.86.79-1,1.93-1.28,1.48-3l-28.93,5.99Z"/>
  <path class="st0" d="M411.39,89.15v21.92h19.96v20.92h-19.96v40.35c0,.23,2.42,2.56,3.07,2.92,4.59,2.52,11.21-.26,15.89-1.42v18.43c-11.83,8.66-35.89,8.38-41.71-7.18-.52-1.39-2.2-7.77-2.2-8.76v-44.34h-9.98v-20.92h9.98v-21.92h24.95Z"/>
  <path class="st0" d="M163.85,109.07v25.9c-9.51-.7-19.84,3.4-24.13,12.28-.52,1.08-2.82,7.56-2.82,8.15v39.85l-1.5,1.49h-23.46v-85.68h24.95v14.94l6.47-8.99c6.21-6.45,11.88-7.16,20.48-7.95Z"/>
  <rect class="st0" x="287.62" y="112.06" width="23.96" height="84.69"/>
  <rect class="st0" x="335.54" y="112.06" width="23.96" height="84.69"/>
</svg>
