<?xml version="1.0" encoding="UTF-8"?>
<svg xmlns="http://www.w3.org/2000/svg" version="1.1" viewBox="0 0 321.52 208.29">
  <!-- Generator: Adobe Illustrator 29.1.0, SVG Export Plug-In . SVG Version: 2.1.0 Build 142)  -->
  <defs>
    <style>
      .st0 {
        fill: #231f20;
      }

      .st1 {
        fill: #fff;
      }

      .st2 {
        display: none;
      }
    </style>
  </defs>
  <g id="Layer_2" class="st2">
    <rect class="st0" x="-9.24" y="-61.68" width="340.01" height="340.01"/>
  </g>
  <g id="Layer_1">
    <path class="st1" d="M130.86,56.55c-.94,1.3,5.64,3.36,6.61,3.89,9.64,5.27,15.67,13.95,23.92,20.73,9.47-7.52,16.55-19.28,28.99-22.59.77-.86-4.21-4.37-4.9-5.11-23.56-25.21,2.71-64.02,34.4-50.79,18.91,7.9,24.95,33.38,11.54,48.97-2.41,2.8-5.49,4.52-8.2,6.93,6.85,2.53,12.27,7.08,17.2,12.31,2.08,2.21,1.77,4.41,5.57,4.08,18.23-1.6,33.14-4.14,51.9-2.01,19.78,2.24,33.47,14.57,14.73,31.24-21.26,18.91-57.8,27.49-84.01,37.47-21.94,21.1-42.58,43.7-64.63,64.65-.68.64-2.06,2.15-3.03,1.96l-44.71-44.08c-4.49-.68-8.96.74-13.36,1.07-18.94,1.42-39.52,2.49-58.52,1.57-11.14-.54-34.79-3.8-41.79-13.11-10.7-14.24,14.82-27.05,24.88-31.53,14.37-6.4,29.64-10.64,44.89-14.38-3.57-19.79,6.77-40.14,25.16-48.2-2.36-3.24-6.33-5.4-8.99-8.7-17.2-21.4.07-53.18,27.2-50.77,28.62,2.53,39.04,40.46,15.15,56.42ZM109.68,16.65c-15.85,2.94-15.13,28.27.89,29.65,24.81,2.14,21.4-33.78-.89-29.65ZM204.62,16.66c-15.62,2.45-15.84,27.27-.5,29.49,25.28,3.66,23.43-33.09.5-29.49ZM134.23,76.75c-29.18-20.37-62.84,16.41-39.13,43.72l25.43,25.09c2.18.57,5.6-.05,7.94-.36,17.49-2.34,34.77-6.81,52.29-9.29,11.97-4.18,27.17-5.23,38.86-9.38,3.17-1.13,7.05-5.03,9.23-7.7,19.26-23.49-5.54-56.88-33.93-45.71-5.36,2.11-9.69,6.9-13.79,10.83-2.6,2.49-18.36,19.27-19.75,19.27l-27.15-26.48ZM246.65,77.65l-.78,1.11c4.52,8.62,6.09,18.55,5.01,28.24-.39,3.54-2.17,6.95-3.04,10.32-.13.49-.96.38.28,1.28,13.92-4.96,29.16-9.05,42.42-15.55,4.71-2.31,15.05-7.79,18.13-11.62.7-.87,1.28-1.78,1.64-2.84-.03-.32-1.74-1.99-2.17-2.29-6.63-4.63-27.45-7.03-35.92-7.69-8.48-.66-17.08-.47-25.57-.95ZM100.57,148.85c-7.58-9.93-18.81-17.1-24.49-28.61-1.07-2.18-2.4-7.81-3.26-9.04-.5-.72-.88-.88-1.75-.86-14.04,6.26-29.33,12.2-42.5,20.15-3.46,2.09-17.06,11.22-17.3,15.07-.16,2.49,5.99,4.2,8.09,4.7,16.1,3.83,41.7,2.5,58.37,1.15,7.61-.62,15.23-2,22.84-2.56ZM197.05,149.89l-60.55,11.54,24.37,24.88,36.18-36.41Z"/>
  </g>
</svg>