<?xml version="1.0" encoding="UTF-8"?>
<svg xmlns="http://www.w3.org/2000/svg" version="1.1" viewBox="0 0 340.01 340.01">
  <!-- Generator: Adobe Illustrator 29.1.0, SVG Export Plug-In . SVG Version: 2.1.0 Build 142)  -->
  <defs>
    <style>
      .st0 {
        fill: #231f20;
      }

      .st1 {
        fill: #fff;
      }

      .st2 {
        fill: #430623;
      }

      .st3 {
        display: none;
      }
    </style>
  </defs>
  <g id="Layer_2" class="st3">
    <rect class="st0" width="340.01" height="340.01"/>
  </g>
  <g id="Layer_1">
    <circle class="st2" cx="170" cy="170" r="162.67"/>
    <path class="st1" d="M140.91,119.63c-.92,1.27,5.48,3.27,6.43,3.79,9.38,5.12,15.25,13.57,23.27,20.17,9.21-7.32,16.1-18.76,28.21-21.98.75-.84-4.09-4.26-4.77-4.97-22.92-24.53,2.64-62.29,33.47-49.41,18.4,7.68,24.27,32.48,11.23,47.64-2.35,2.73-5.34,4.4-7.98,6.74,6.67,2.46,11.94,6.89,16.73,11.98,2.03,2.15,1.72,4.29,5.42,3.97,17.74-1.56,32.24-4.03,50.49-1.96,19.24,2.18,32.56,14.18,14.33,30.4-20.68,18.4-56.23,26.75-81.74,36.46-21.35,20.53-41.43,42.51-62.88,62.9-.66.63-2.01,2.09-2.95,1.9l-43.5-42.89c-4.37-.66-8.72.72-13,1.04-18.43,1.39-38.45,2.42-56.94,1.52-10.84-.53-33.85-3.7-40.66-12.76-10.41-13.85,14.42-26.32,24.2-30.68,13.98-6.23,28.83-10.35,43.67-13.99-3.47-19.25,6.59-39.05,24.48-46.9-2.29-3.15-6.16-5.25-8.74-8.47-16.74-20.83.07-51.74,26.46-49.4,27.85,2.47,37.98,39.36,14.74,54.89ZM120.3,80.81c-15.42,2.86-14.72,27.5.86,28.84,24.13,2.08,20.82-32.87-.86-28.84ZM212.67,80.81c-15.2,2.39-15.41,26.54-.49,28.69,24.59,3.56,22.79-32.2.49-28.69ZM144.19,139.29c-28.39-19.82-61.14,15.97-38.07,42.54l24.74,24.41c2.12.55,5.45-.05,7.72-.35,17.01-2.27,33.83-6.62,50.87-9.04,11.65-4.07,26.43-5.08,37.81-9.12,3.09-1.1,6.86-4.9,8.98-7.49,18.74-22.85-5.39-55.35-33.02-44.48-5.22,2.05-9.43,6.72-13.41,10.54-2.53,2.42-17.87,18.75-19.21,18.75l-26.42-25.76ZM253.57,140.16l-.76,1.08c4.4,8.38,5.92,18.05,4.87,27.48-.38,3.44-2.11,6.76-2.95,10.04-.12.47-.93.37.27,1.24,13.54-4.82,28.37-8.8,41.28-15.13,4.58-2.25,14.64-7.58,17.64-11.31.68-.84,1.25-1.73,1.6-2.76-.03-.31-1.69-1.94-2.11-2.23-6.45-4.51-26.71-6.84-34.95-7.49s-16.62-.45-24.88-.93ZM111.45,209.44c-7.38-9.66-18.3-16.64-23.82-27.83-1.05-2.12-2.34-7.6-3.18-8.8-.49-.7-.86-.85-1.71-.84-13.67,6.09-28.54,11.87-41.35,19.61-3.36,2.03-16.59,10.92-16.83,14.67-.15,2.42,5.83,4.09,7.87,4.57,15.66,3.73,40.57,2.44,56.79,1.12,7.4-.6,14.81-1.94,22.22-2.49ZM205.31,210.44l-58.91,11.22,23.71,24.2,35.21-35.43Z"/>
  </g>
</svg>